<?xml version="1.0" standalone="no"?>
<!DOCTYPE svg PUBLIC "-//W3C//DTD SVG 20010904//EN"
 "http://www.w3.org/TR/2001/REC-SVG-20010904/DTD/svg10.dtd">
<svg version="1.0" xmlns="http://www.w3.org/2000/svg"
 width="16.000000pt" height="16.000000pt" viewBox="0 0 16.000000 16.000000"
 preserveAspectRatio="xMidYMid meet">
<metadata>
Created by potrace 1.11, written by Peter Selinger 2001-2013
</metadata>
<g transform="translate(0.000000,16.000000) scale(0.003125,-0.003125)"
fill="#000000" stroke="none">
<path d="M875 4600 l-320 -320 -137 137 -138 138 -139 -140 -139 -140 274
-279 275 -280 462 462 462 462 -140 140 -140 140 -320 -320z"/>
<path d="M1732 4593 l3 -158 1693 -3 1692 -2 0 160 0 160 -1695 0 -1696 0 3
-157z"/>
<path d="M1730 4050 l0 -160 850 0 850 0 0 160 0 160 -850 0 -850 0 0 -160z"/>
<path d="M875 2840 l-320 -320 -137 137 -137 137 -140 -139 -140 -140 274
-280 274 -280 463 462 463 463 -140 140 -140 140 -320 -320z"/>
<path d="M1730 2830 l0 -160 1695 0 1695 0 0 160 0 160 -1695 0 -1695 0 0
-160z"/>
<path d="M1730 2290 l0 -160 850 0 850 0 0 160 0 160 -850 0 -850 0 0 -160z"/>
<path d="M875 1080 l-320 -320 -135 134 -135 135 -143 -137 -144 -137 275
-280 275 -280 464 462 463 463 -140 140 -140 140 -320 -320z"/>
<path d="M1730 1070 l0 -160 1695 0 1695 0 0 160 0 160 -1695 0 -1695 0 0
-160z"/>
<path d="M1737 683 c-4 -3 -7 -75 -7 -159 0 -151 0 -154 23 -159 12 -3 393 -4
847 -3 l825 3 3 163 2 162 -843 0 c-464 0 -847 -3 -850 -7z"/>
</g>
</svg>
